<svg xmlns="http://www.w3.org/2000/svg" viewBox="0 0 32 32" fill="none">
  <rect width="32" height="32" rx="8" fill="#00843D"/>
  <rect x="3" y="3" width="26" height="26" rx="6" fill="#fff"/>
  <path fill="#00843D" d="M10.2 22V10h3.1c1.85 0 3.05.95 3.05 2.55 0 1.1-.6 1.95-1.55 2.3 1.25.4 2 1.4 2 2.75 0 1.85-1.35 3.4-3.65 3.4H10.2zm2.05-7.05h.95c.85 0 1.35-.45 1.35-1.2s-.5-1.15-1.35-1.15h-.95v2.35zm0 5.2h1.15c1 0 1.55-.5 1.55-1.35s-.55-1.3-1.55-1.3h-1.15v2.65zM18.4 22l2.55-12h2.15l2.55 12h-2.15l-.45-2.35h-2.05L20.55 22H18.4zm2.85-4.15h1.45l-.7-3.65-.75 3.65z"/>
</svg>
